<svg xmlns="http://www.w3.org/2000/svg" xmlns:xlink="http://www.w3.org/1999/xlink" id="_x31_" x="0" y="0" preserveAspectRatio="xMinYMid" version="1.1" viewBox="-295 217 48 48" xml:space="preserve"><style>g,path{shape-rendering:geometricPrecision}</style><path fill="#CFD8DC" d="M-250,257.3c0,2.6-2.1,4.7-4.7,4.7h-32.7c-2.6,0-4.7-2.1-4.7-4.7v-32.7c0-2.6,2.1-4.7,4.7-4.7h32.7	c2.6,0,4.7,2.1,4.7,4.7V257.3z"/><g><rect width="30.3" height="18.7" x="-286.2" y="228.2" fill="#455A64"/><rect width="21" height="8.2" x="-281.5" y="242.2" fill="#455A64"/><rect width="11.7" height="7" x="-276.8" y="246.8" fill="#455A64"/></g><g><rect width="2.3" height="8.2" x="-282.7" y="230.5" fill="#FDD835"/><rect width="2.3" height="8.2" x="-279.2" y="230.5" fill="#FDD835"/><rect width="2.3" height="8.2" x="-275.7" y="230.5" fill="#FDD835"/><rect width="2.3" height="8.2" x="-272.2" y="230.5" fill="#FDD835"/><rect width="2.3" height="8.2" x="-268.7" y="230.5" fill="#FDD835"/><rect width="2.3" height="8.2" x="-265.2" y="230.5" fill="#FDD835"/><rect width="2.3" height="8.2" x="-261.7" y="230.5" fill="#FDD835"/></g></svg>